<svg width="350" height="50" xmlns="http://www.w3.org/2000/svg">
 <title>Ativo 18</title>

 <g>
  <title>background</title>
  <rect fill="none" id="canvas_background" height="52" width="352" y="-1" x="-1"/>
 </g>
 <g>
  <title>Layer 1</title>
  <path id="svg_13" fill="#26445f" d="m301.93,1.29032l0,0z"/>
  <g id="svg_14">
   <path id="svg_1" fill="#fff" d="m131.20484,93.15459l0,0z"/>
   <path id="svg_2" fill="#26445f" d="m301.28484,93.24459l0,0z"/>
   <path id="svg_3" fill="#26445f" d="m245.35484,24.64459s0,0.05 0,0.07s0,-0.1 0,-0.07z"/>
   <path id="svg_4" fill="#26445f" d="m245.35484,24.61459l0,0.1s0,0 0,-0.1z"/>
   <path id="svg_5" fill="#bed630" d="m149.02484,23.04459a13.58,13.58 0 0 0 -2.07,-3.46c-2.56,-3.06 -6.36,-4.68 -11,-4.68l0,0l0,0l-27.55,0l1.21,-8.36l-12.55,0l-1.19,8.32l-4.11,0l-1.77,9.48l4.29,0l-1.86,11.09c-1.44,8.14 2.19,12.53 9.09,12.53a22,22 0 0 0 10.46,-2.51l-1.56,-8.77a8.61,8.61 0 0 1 -3.26,0.63c-1.25,0 -2.32,-1.26 -1.94,-3.14l1.5,-9.88l11.89,0a21.41,21.41 0 0 0 -2.55,6.5a13.82,13.82 0 0 0 14,17c7.14,0 15.4,-3.73 18.74,-11.8a19.58,19.58 0 0 0 1.2,-4.08a15.75,15.75 0 0 0 -0.97,-8.87zm-10.59,9l0,0c-0.41,2.31 -2.31,6.68 -6.64,6.68a4,4 0 0 1 -3.22,-1.38c-1.55,-1.84 -1.27,-5 -1,-6.75c0.31,-1.58 1.72,-6.69 6.64,-6.69a4,4 0 0 1 3.2,1.35c1.49,1.75 1.37,4.65 1.02,6.78l0,0.01z"/>
   <path id="svg_6" fill="#bed630" d="m32.95484,46.70459l-1,-6.45l-13.68,0l-3.52,6.45l-15.4,0l26,-42.25l14.52,0l7.4,42.25l-14.32,0zm-3.34,-27.87l-6,10.86l7.28,0l-1.28,-10.86z"/>
   <path id="svg_7" fill="#bed630" d="m82.45484,43.48459c-0.18,1.19 -0.31,2.26 -0.39,3.22l-12.89,0c0,-0.6 0.1,-1.28 0.18,-2.06s0.16,-1.44 0.24,-2l-0.24,0a12,12 0 0 1 -3.85,3.34a10.66,10.66 0 0 1 -5.46,1.44a11.33,11.33 0 0 1 -4.45,-0.78a8.43,8.43 0 0 1 -3,-2.06a7.72,7.72 0 0 1 -1.67,-2.95a11.85,11.85 0 0 1 -0.51,-3.47c0,-0.63 0,-1.3 0.09,-2a19.73,19.73 0 0 1 0.27,-2l3.3,-18.82l13.43,0l-2.92,16.62a6.62,6.62 0 0 0 -0.15,1.1q0,0.57 0,0.93a2.88,2.88 0 0 0 0.65,1.94a2.65,2.65 0 0 0 2.09,0.74a3.1,3.1 0 0 0 2.42,-1.22a7.43,7.43 0 0 0 1.46,-3.55l3,-16.59l13.3,0l-4.39,25.24c-0.16,0.79 -0.33,1.73 -0.51,2.93z"/>
   <path id="svg_8" fill="#26445f" d="m317.70484,19.67459c-2.56,-3.06 -6.36,-4.68 -11,-4.68l-0.05,0l0.05,0l-26.7,0l1.22,-8.36l-12.56,0l-1.19,8.32l-4.39,0l-2.91,9.39l5.71,0l-1.86,11.14c-1.44,8.15 1.34,12.54 8.24,12.54a22,22 0 0 0 10.46,-2.51l-1.56,-8.78a8.61,8.61 0 0 1 -3.26,0.63c-1.26,0 -1.47,-1.25 -1.09,-3.13l1.54,-9.89l11,0a21.36,21.36 0 0 0 -2.55,6.5a13.82,13.82 0 0 0 14,17c7.14,0 15.4,-3.73 18.75,-11.8a19,19 0 0 0 1.19,-4.08a15.73,15.73 0 0 0 -0.95,-8.82a13.41,13.41 0 0 0 -2.09,-3.47zm-8.52,12.45l0,0c-0.41,2.31 -2.32,6.69 -6.64,6.69a4,4 0 0 1 -3.19,-1.36c-1.54,-1.84 -1.27,-5 -1,-6.75c0.31,-1.58 1.72,-6.69 6.63,-6.69a4,4 0 0 1 3.21,1.33c1.46,1.75 1.34,4.65 0.99,6.78z"/>
   <path id="svg_9" fill="#26445f" d="m227.80484,18.11459a12,12 0 0 0 -4.32,-2.61a17,17 0 0 0 -5.76,-0.91a19.37,19.37 0 0 0 -7.37,1.36a17.27,17.27 0 0 0 -5.77,3.74a16.64,16.64 0 0 0 -3.75,5.65a18.07,18.07 0 0 0 -1.33,7a12.93,12.93 0 0 0 1.21,5.79c0.82,1.64 7.1,13.12 27,6.1l2.72,-8.89c-8.73,3 -16.78,2.12 -19.08,-0.5a2.24,2.24 0 0 1 -0.5,-1.53a1.12,1.12 0 0 1 0.06,-0.38l19.83,0a15.77,15.77 0 0 0 0.58,-2.66a19.91,19.91 0 0 0 0.19,-2.66a14.24,14.24 0 0 0 -1,-5.4a11.37,11.37 0 0 0 -2.71,-4.1zm-7,7.86a1,1 0 0 1 -0.06,0.36l-8.23,0a3.17,3.17 0 0 1 0.8,-2.23a4.36,4.36 0 0 1 1.53,-1.14a5.25,5.25 0 0 1 2.08,-0.39a4.36,4.36 0 0 1 2.85,0.84a2.74,2.74 0 0 1 1,2.25l0.03,0.31z"/>
   <path id="svg_10" fill="#26445f" d="m256.35484,23.94459l2.77,-9.07c-0.78,-0.37 -7.67,-0.87 -10.09,-0.87a19.82,19.82 0 0 0 -5.22,0.7a15.51,15.51 0 0 0 -4.67,2.1a10.73,10.73 0 0 0 -3.36,3.54a9.77,9.77 0 0 0 -1.26,5a8.12,8.12 0 0 0 0.62,3.27a7.16,7.16 0 0 0 1.75,2.45a10.69,10.69 0 0 0 2.74,1.81a22.7,22.7 0 0 0 3.65,1.34a13.91,13.91 0 0 1 2.31,0.88q0.9,0.47 0.9,1.17a1.05,1.05 0 0 1 -0.67,1a4.75,4.75 0 0 1 -1.84,0.32c-4.42,0.18 -10,-2 -10,-2l-2.54,8.76a30.64,30.64 0 0 0 5.18,1.46a28.66,28.66 0 0 0 7,0.93a23.15,23.15 0 0 0 5.11,-0.58a14.87,14.87 0 0 0 4.73,-1.93a11.17,11.17 0 0 0 3.51,-3.5a9.64,9.64 0 0 0 1.38,-5.23a8.53,8.53 0 0 0 -0.7,-3.56a7.74,7.74 0 0 0 -2,-2.63a11.76,11.76 0 0 0 -3.06,-1.9a24.07,24.07 0 0 0 -3.95,-1.31a11.83,11.83 0 0 1 -2.13,-0.73a1,1 0 0 1 -0.61,-0.91c-0.11,-1.53 1.98,-4.43 10.45,-0.51z"/>
   <path id="svg_11" fill="#26445f" d="m198.53484,18.82459l-19.6,0l-1.93,11l7,0l-0.65,3.71a7.33,7.33 0 0 1 -1.72,0.48a11.5,11.5 0 0 1 -2.08,0.19q-4.47,0 -6.51,-2.33a8.5,8.5 0 0 1 -2,-5.87a14.12,14.12 0 0 1 0.9,-5.19a11.06,11.06 0 0 1 2.38,-3.89c5.94,-5.69 15.39,-4.45 17.53,-2.41l4.47,-10.31c-10.71,-5.35 -25.44,-3.07 -32.73,4.68a25.55,25.55 0 0 0 -5.24,8.32a27.69,27.69 0 0 0 -1.87,10.24a19.86,19.86 0 0 0 1.54,8.05a16.27,16.27 0 0 0 4.33,5.94a19,19 0 0 0 6.72,3.65a29.07,29.07 0 0 0 8.71,1.26a31.41,31.41 0 0 0 8.89,-1.23a40.77,40.77 0 0 0 7.48,-3l4.38,-23.29z"/>
   <path id="svg_12" fill="#26445f" d="m326.28484,18.73459q0.27,-1.77 0.39,-3.18l12.68,0a6.42,6.42 0 0 1 -0.06,0.77c0,0.31 -0.08,0.65 -0.14,1l-0.18,1.09l-0.15,0.88l0.18,0a12.07,12.07 0 0 1 3.3,-3.15a8.2,8.2 0 0 1 4.6,-1.27a8,8 0 0 1 2.47,0.3l-2.47,11.19a6.52,6.52 0 0 0 -1.36,-0.23q-0.76,-0.06 -1.41,-0.06a6.67,6.67 0 0 0 -4.78,1.65a7,7 0 0 0 -2.12,3.8l-2.65,15l-13.23,0l4.42,-24.92c0.17,-0.73 0.34,-1.69 0.51,-2.87z"/>
  </g>
 </g>
</svg>
